<svg width="152" height="48" viewBox="0 0 152 48" fill="none" xmlns="http://www.w3.org/2000/svg">
<path d="M5.46816 0.0565811C6.60675 0.487343 7.12435 1.43749 7.68455 2.47182C7.89843 2.9847 8.10438 3.50093 8.30368 4.01964C9.84611 7.93773 13.2356 12.1265 17.0403 14.0289C17.0403 14.2105 17.0403 14.3921 17.0403 14.5792C17.4943 14.7608 17.9483 14.9424 18.4161 15.1296C18.4161 15.3112 18.4161 15.4928 18.4161 15.6799C18.6424 15.742 18.8687 15.804 19.1019 15.868C20.2844 16.3118 21.2538 16.9281 22.3028 17.6233C22.5074 17.7574 22.712 17.8915 22.9227 18.0296C25.1152 19.4802 27.3007 20.9526 29.1476 22.8343C29.4309 23.0734 29.7171 23.309 30.0075 23.5394C30.7987 24.2101 30.7987 24.2101 31.349 25.0356C31.349 25.308 31.349 25.5804 31.349 25.8611C31.6214 25.8611 31.8938 25.8611 32.1745 25.8611C32.1745 26.0427 32.1745 26.2243 32.1745 26.4114C32.3561 26.4114 32.5377 26.4114 32.7248 26.4114C32.861 27.3649 32.861 27.3649 33 28.3376C32.6368 28.4284 32.2736 28.5192 31.8993 28.6128C31.8993 28.7944 31.8993 28.976 31.8993 29.1631C31.7564 29.2266 31.6134 29.2901 31.4662 29.3555C30.1778 29.958 29.3098 30.5939 28.3221 31.6396C28.1405 31.6396 27.9589 31.6396 27.7718 31.6396C27.6104 31.4364 27.449 31.2331 27.2827 31.0237C26.6326 30.2159 25.9842 29.7103 25.1405 29.1115C23.6535 28.0254 22.3131 26.8655 20.9689 25.6042C20.3372 25.0027 20.3372 25.0027 19.5168 24.4853C19.5168 24.3037 19.5168 24.122 19.5168 23.9349C19.2444 23.9349 18.9719 23.9349 18.6913 23.9349C18.6913 23.7533 18.6913 23.5717 18.6913 23.3846C18.5097 23.3846 18.328 23.3846 18.1409 23.3846C17.8233 23.0015 17.507 22.6173 17.1983 22.227C16.5374 21.4742 15.7698 20.8588 14.9969 20.2245C14.7825 20.018 14.7825 20.018 14.5637 19.8074C14.5637 19.6258 14.5637 19.4442 14.5637 19.2571C14.2913 19.1663 14.0189 19.0755 13.7382 18.9819C13.203 18.3273 13.203 18.3273 12.6032 17.4513C12.4956 17.2947 12.388 17.138 12.2771 16.9767C11.4317 15.7207 10.707 14.4146 9.98908 13.083C9.01172 11.2874 8.13871 9.7322 6.05074 9.11025C5.86345 9.0989 5.67617 9.08755 5.4832 9.07586C4.6603 9.98323 4.55855 10.5776 4.57708 11.7888C4.58107 12.2491 4.58107 12.2491 4.58515 12.7186C4.59552 13.1969 4.59552 13.1969 4.60611 13.6849C4.60983 14.0081 4.61355 14.3312 4.61739 14.6641C4.62712 15.4615 4.64069 16.2585 4.6577 17.0557C3.93126 16.6017 3.20481 16.1477 2.45636 15.6799C2.4223 15.9466 2.38825 16.2134 2.35317 16.4882C2.29641 16.7663 2.23966 17.0444 2.18119 17.3309C1.90877 17.4671 1.90877 17.4671 1.63085 17.6061C-0.543617 6.43877 -0.543617 6.43877 1.63085 1.92149C2.5882 0.547136 3.76031 -0.221805 5.46816 0.0565811Z" fill="url(#paint0_linear_55_3)"/>
<path d="M7.13421 14.304C8.13813 15.1921 8.79999 16.2279 9.50968 17.3513C9.84838 17.9164 9.84838 17.9164 10.4362 18.1564C10.527 18.4288 10.6178 18.7012 10.7114 18.9819C10.9838 19.1635 11.2562 19.3451 11.5369 19.5322C11.6277 19.8046 11.7185 20.077 11.8121 20.3577C12.0808 20.6392 12.3573 20.9133 12.6376 21.1832C13.2729 21.9307 13.7017 22.4494 14.0134 23.3846C14.1439 23.5037 14.2745 23.6229 14.409 23.7457C14.8389 24.2101 14.8389 24.2101 15.1141 25.07C15.2049 25.331 15.2957 25.5921 15.3892 25.8611C15.7979 25.9973 15.7979 25.9973 16.2148 26.1362C16.6791 26.8414 16.6791 26.8414 17.0403 27.5121C17.1765 27.2397 17.1765 27.2397 17.3154 26.9617C18.1409 27.2369 18.1409 27.2369 18.6913 28.0624C18.8576 28.1284 19.024 28.1944 19.1954 28.2623C20.9111 29.2702 22.0122 32.1007 22.5286 33.9441C22.8144 36.2795 22.0713 38.1073 20.8582 40.0666C20.6028 40.3901 20.6028 40.3901 20.3423 40.7201C20.1607 40.7201 19.979 40.7201 19.7919 40.7201C19.7919 40.9018 19.7919 41.0834 19.7919 41.2705C19.6103 41.2705 19.4287 41.2705 19.2416 41.2705C19.2416 41.4521 19.2416 41.6337 19.2416 41.8208C19.06 41.8208 18.8784 41.8208 18.6913 41.8208C18.6913 42.0932 18.6913 42.3656 18.6913 42.6463C17.9061 43.0389 17.361 43.0069 16.4899 42.9215C15.6836 42.4198 15.2164 42.1041 14.8905 41.2017C14.8735 41.0428 14.8565 40.8839 14.8389 40.7201C14.6573 40.7201 14.4757 40.7201 14.2886 40.7201C14.0565 40.1077 13.8277 39.4943 13.6007 38.88C13.535 38.7077 13.4694 38.5355 13.4018 38.3581C13.039 37.3681 12.832 36.5472 12.9127 35.4919C13.1852 35.4919 13.4576 35.4919 13.7382 35.4919C13.6088 35.3355 13.4793 35.1791 13.3459 35.0179C12.3259 33.7529 11.5618 32.6233 10.9866 31.0893C10.6932 30.4562 10.3966 29.8247 10.0976 29.1943C9.88589 28.6128 9.88589 28.6128 9.88589 27.5121C10.1583 27.5121 10.4307 27.5121 10.7114 27.5121C10.628 27.3581 10.5447 27.2042 10.4588 27.0456C8.41922 23.1421 6.85698 18.7602 7.13421 14.304Z" fill="#FAD3D5"/>
<path d="M5.46816 0.0565811C6.60675 0.487343 7.12435 1.43749 7.68455 2.47182C7.89843 2.9847 8.10438 3.50093 8.30368 4.01964C9.01012 5.84154 10.0693 7.2947 11.2316 8.84583C11.8121 9.62619 11.8121 9.62619 12.0872 10.1765C11.8659 10.0857 11.6446 9.99492 11.4165 9.90136C10.7948 9.60952 10.7948 9.60952 10.4362 9.62619C10.6235 9.93266 10.8108 10.2391 11.0038 10.5549C11.323 11.0773 11.323 11.0773 11.5369 11.5524C11.4007 11.8248 11.4007 11.8248 11.2617 12.1027C10.8985 11.9211 10.5353 11.7395 10.1611 11.5524C10.3427 12.2788 10.5243 13.0053 10.7114 13.7537C10.0852 13.1726 9.66937 12.6035 9.24957 11.8619C8.44502 10.55 7.6021 9.56102 6.06794 9.12745C5.77849 9.10191 5.77849 9.10191 5.4832 9.07586C4.6603 9.98323 4.55855 10.5776 4.57708 11.7888C4.58107 12.2491 4.58107 12.2491 4.58515 12.7186C4.59552 13.1969 4.59552 13.1969 4.60611 13.6849C4.60983 14.0081 4.61355 14.3312 4.61739 14.6641C4.62712 15.4615 4.64069 16.2585 4.6577 17.0557C3.93126 16.6017 3.20481 16.1477 2.45636 15.6799C2.4223 15.9466 2.38825 16.2134 2.35317 16.4882C2.29641 16.7663 2.23966 17.0444 2.18119 17.3309C1.90877 17.4671 1.90877 17.4671 1.63085 17.6061C-0.543617 6.43877 -0.543617 6.43877 1.63085 1.92149C2.5882 0.547136 3.76031 -0.221805 5.46816 0.0565811Z" fill="#84605B"/>
<path d="M2.45635 15.6799C3.49507 16.1031 4.30557 16.6765 4.93286 17.606C5.3617 18.7576 5.64429 19.9377 5.93035 21.1316C6.08771 21.7643 6.24605 22.3967 6.40544 23.0288C6.48037 23.327 6.55531 23.6251 6.63251 23.9324C6.91745 24.9739 7.29201 25.9566 7.68454 26.9618C7.68454 27.1434 7.68454 27.325 7.68454 27.5121C7.32132 27.4213 6.9581 27.3305 6.58387 27.2369C7.56248 31.1661 8.96553 34.7951 11.5369 37.9685C11.6277 38.2409 11.7185 38.5133 11.8121 38.794C12.0845 38.9756 12.3569 39.1572 12.6376 39.3443C12.6376 39.5259 12.6376 39.7075 12.6376 39.8947C12.2743 39.8947 11.9111 39.8947 11.5369 39.8947C12.498 42.7226 13.4609 44.7569 15.9396 46.4987C16.212 46.5895 16.4844 46.6803 16.7651 46.7739C16.7651 46.9555 16.7651 47.1371 16.7651 47.3242C15.447 47.6017 14.6518 47.759 13.4631 47.0662C13.1907 46.8789 12.9182 46.6916 12.6376 46.4987C12.6376 46.3171 12.6376 46.1355 12.6376 45.9483C12.4751 45.8778 12.3127 45.8072 12.1453 45.7344C10.3586 44.7464 8.90663 42.4901 7.95971 40.7202C7.77698 39.9581 7.77698 39.9581 7.68454 39.3443C8.22938 39.6167 8.77421 39.8891 9.33555 40.1698C9.24962 40.0052 9.16369 39.8405 9.07516 39.6709C6.09199 33.9226 6.09199 33.9226 5.44988 31.3505C5.2405 30.6479 4.99125 30.0465 4.68349 29.3845C4.05848 28.0104 3.64918 26.6133 3.26466 25.156C3.1948 24.8928 3.12495 24.6295 3.05297 24.3583C2.63668 22.7621 2.23071 21.1634 1.88882 19.5494C1.81752 19.2178 1.74622 18.8861 1.67277 18.5444C1.61932 17.3481 1.91751 16.7373 2.45635 15.6799Z" fill="#EAD7CD"/>
<path d="M146.532 0.0565811C145.393 0.487343 144.876 1.43749 144.315 2.47182C144.102 2.9847 143.896 3.50093 143.696 4.01964C142.154 7.93773 138.764 12.1265 134.96 14.0289C134.96 14.2105 134.96 14.3921 134.96 14.5792C134.506 14.7608 134.052 14.9424 133.584 15.1296C133.584 15.3112 133.584 15.4928 133.584 15.6799C133.358 15.742 133.131 15.804 132.898 15.868C131.716 16.3118 130.746 16.9281 129.697 17.6233C129.493 17.7574 129.288 17.8915 129.077 18.0296C126.885 19.4802 124.699 20.9526 122.852 22.8343C122.569 23.0734 122.283 23.309 121.992 23.5394C121.201 24.2101 121.201 24.2101 120.651 25.0356C120.651 25.308 120.651 25.5804 120.651 25.8611C120.379 25.8611 120.106 25.8611 119.826 25.8611C119.826 26.0427 119.826 26.2243 119.826 26.4114C119.644 26.4114 119.462 26.4114 119.275 26.4114C119.139 27.3649 119.139 27.3649 119 28.3376C119.363 28.4284 119.726 28.5192 120.101 28.6128C120.101 28.7944 120.101 28.976 120.101 29.1631C120.244 29.2266 120.387 29.2901 120.534 29.3555C121.822 29.958 122.69 30.5939 123.678 31.6396C123.859 31.6396 124.041 31.6396 124.228 31.6396C124.39 31.4364 124.551 31.2331 124.717 31.0237C125.367 30.2159 126.016 29.7103 126.859 29.1115C128.347 28.0254 129.687 26.8655 131.031 25.6042C131.663 25.0027 131.663 25.0027 132.483 24.4853C132.483 24.3037 132.483 24.122 132.483 23.9349C132.756 23.9349 133.028 23.9349 133.309 23.9349C133.309 23.7533 133.309 23.5717 133.309 23.3846C133.49 23.3846 133.672 23.3846 133.859 23.3846C134.177 23.0015 134.493 22.6173 134.802 22.227C135.463 21.4742 136.23 20.8588 137.003 20.2245C137.218 20.018 137.218 20.018 137.436 19.8074C137.436 19.6258 137.436 19.4442 137.436 19.2571C137.709 19.1663 137.981 19.0755 138.262 18.9819C138.797 18.3273 138.797 18.3273 139.397 17.4513C139.504 17.2947 139.612 17.138 139.723 16.9767C140.568 15.7207 141.293 14.4146 142.011 13.083C142.988 11.2874 143.861 9.7322 145.949 9.11025C146.137 9.0989 146.324 9.08755 146.517 9.07586C147.34 9.98323 147.441 10.5776 147.423 11.7888C147.419 12.2491 147.419 12.2491 147.415 12.7186C147.404 13.1969 147.404 13.1969 147.394 13.6849C147.39 14.0081 147.386 14.3312 147.383 14.6641C147.373 15.4615 147.359 16.2585 147.342 17.0557C148.069 16.6017 148.795 16.1477 149.544 15.6799C149.578 15.9466 149.612 16.2134 149.647 16.4882C149.704 16.7663 149.76 17.0444 149.819 17.3309C150.091 17.4671 150.091 17.4671 150.369 17.6061C152.544 6.43877 152.544 6.43877 150.369 1.92149C149.412 0.547136 148.24 -0.221805 146.532 0.0565811Z" fill="url(#paint1_linear_55_3)"/>
<path d="M144.866 14.304C143.862 15.1921 143.2 16.2279 142.49 17.3513C142.152 17.9164 142.152 17.9164 141.564 18.1564C141.473 18.4288 141.382 18.7012 141.289 18.9819C141.016 19.1635 140.744 19.3451 140.463 19.5322C140.372 19.8046 140.281 20.077 140.188 20.3577C139.919 20.6392 139.643 20.9133 139.362 21.1832C138.727 21.9307 138.298 22.4494 137.987 23.3846C137.856 23.5037 137.726 23.6229 137.591 23.7457C137.161 24.2101 137.161 24.2101 136.886 25.07C136.795 25.331 136.704 25.5921 136.611 25.8611C136.202 25.9973 136.202 25.9973 135.785 26.1362C135.321 26.8414 135.321 26.8414 134.96 27.5121C134.824 27.2397 134.824 27.2397 134.685 26.9617C133.859 27.2369 133.859 27.2369 133.309 28.0624C133.142 28.1284 132.976 28.1944 132.805 28.2623C131.089 29.2702 129.988 32.1007 129.471 33.9441C129.186 36.2795 129.929 38.1073 131.142 40.0666C131.397 40.3901 131.397 40.3901 131.658 40.7201C131.839 40.7201 132.021 40.7201 132.208 40.7201C132.208 40.9018 132.208 41.0834 132.208 41.2705C132.39 41.2705 132.571 41.2705 132.758 41.2705C132.758 41.4521 132.758 41.6337 132.758 41.8208C132.94 41.8208 133.122 41.8208 133.309 41.8208C133.309 42.0932 133.309 42.3656 133.309 42.6463C134.094 43.0389 134.639 43.0069 135.51 42.9215C136.316 42.4198 136.784 42.1041 137.109 41.2017C137.127 41.0428 137.144 40.8839 137.161 40.7201C137.343 40.7201 137.524 40.7201 137.711 40.7201C137.943 40.1077 138.172 39.4943 138.399 38.88C138.465 38.7077 138.531 38.5355 138.598 38.3581C138.961 37.3681 139.168 36.5472 139.087 35.4919C138.815 35.4919 138.542 35.4919 138.262 35.4919C138.391 35.3355 138.521 35.1791 138.654 35.0179C139.674 33.7529 140.438 32.6233 141.013 31.0893C141.307 30.4562 141.603 29.8247 141.902 29.1943C142.114 28.6128 142.114 28.6128 142.114 27.5121C141.842 27.5121 141.569 27.5121 141.289 27.5121C141.372 27.3581 141.455 27.2042 141.541 27.0456C143.581 23.1421 145.143 18.7602 144.866 14.304Z" fill="#FAD3D5"/>
<path d="M146.532 0.0565811C145.393 0.487343 144.876 1.43749 144.315 2.47182C144.102 2.9847 143.896 3.50093 143.696 4.01964C142.99 5.84154 141.931 7.2947 140.768 8.84583C140.188 9.62619 140.188 9.62619 139.913 10.1765C140.134 10.0857 140.355 9.99492 140.583 9.90136C141.205 9.60952 141.205 9.60952 141.564 9.62619C141.376 9.93266 141.189 10.2391 140.996 10.5549C140.677 11.0773 140.677 11.0773 140.463 11.5524C140.599 11.8248 140.599 11.8248 140.738 12.1027C141.101 11.9211 141.465 11.7395 141.839 11.5524C141.657 12.2788 141.476 13.0053 141.289 13.7537C141.915 13.1726 142.331 12.6035 142.75 11.8619C143.555 10.55 144.398 9.56102 145.932 9.12745C146.222 9.10191 146.222 9.10191 146.517 9.07586C147.34 9.98323 147.441 10.5776 147.423 11.7888C147.419 12.2491 147.419 12.2491 147.415 12.7186C147.404 13.1969 147.404 13.1969 147.394 13.6849C147.39 14.0081 147.386 14.3312 147.383 14.6641C147.373 15.4615 147.359 16.2585 147.342 17.0557C148.069 16.6017 148.795 16.1477 149.544 15.6799C149.578 15.9466 149.612 16.2134 149.647 16.4882C149.704 16.7663 149.76 17.0444 149.819 17.3309C150.091 17.4671 150.091 17.4671 150.369 17.6061C152.544 6.43877 152.544 6.43877 150.369 1.92149C149.412 0.547136 148.24 -0.221805 146.532 0.0565811Z" fill="#84605B"/>
<path d="M149.544 15.6799C148.505 16.1031 147.694 16.6765 147.067 17.606C146.638 18.7576 146.356 19.9377 146.07 21.1316C145.912 21.7643 145.754 22.3967 145.595 23.0288C145.52 23.327 145.445 23.6251 145.367 23.9324C145.083 24.9739 144.708 25.9566 144.315 26.9618C144.315 27.1434 144.315 27.325 144.315 27.5121C144.679 27.4213 145.042 27.3305 145.416 27.2369C144.438 31.1661 143.034 34.7951 140.463 37.9685C140.372 38.2409 140.281 38.5133 140.188 38.794C139.916 38.9756 139.643 39.1572 139.362 39.3443C139.362 39.5259 139.362 39.7075 139.362 39.8947C139.726 39.8947 140.089 39.8947 140.463 39.8947C139.502 42.7226 138.539 44.7569 136.06 46.4987C135.788 46.5895 135.516 46.6803 135.235 46.7739C135.235 46.9555 135.235 47.1371 135.235 47.3242C136.553 47.6017 137.348 47.759 138.537 47.0662C138.809 46.8789 139.082 46.6916 139.362 46.4987C139.362 46.3171 139.362 46.1355 139.362 45.9483C139.525 45.8778 139.687 45.8072 139.855 45.7344C141.641 44.7464 143.093 42.4901 144.04 40.7202C144.223 39.9581 144.223 39.9581 144.315 39.3443C143.771 39.6167 143.226 39.8891 142.664 40.1698C142.75 40.0052 142.836 39.8405 142.925 39.6709C145.908 33.9226 145.908 33.9226 146.55 31.3505C146.759 30.6479 147.009 30.0465 147.317 29.3845C147.942 28.0104 148.351 26.6133 148.735 25.156C148.805 24.8928 148.875 24.6295 148.947 24.3583C149.363 22.7621 149.769 21.1634 150.111 19.5494C150.182 19.2178 150.254 18.8861 150.327 18.5444C150.381 17.3481 150.082 16.7373 149.544 15.6799Z" fill="#EAD7CD"/>
<defs>
<linearGradient id="paint0_linear_55_3" x1="16.5" y1="0" x2="16.5" y2="31.6396" gradientUnits="userSpaceOnUse">
<stop stop-color="#ECD5CA"/>
<stop offset="1" stop-color="#ECD5CA"/>
</linearGradient>
<linearGradient id="paint1_linear_55_3" x1="135.5" y1="0" x2="135.5" y2="31.6396" gradientUnits="userSpaceOnUse">
<stop stop-color="#ECD5CA"/>
<stop offset="1" stop-color="#ECD5CA"/>
</linearGradient>
</defs>
</svg>
