<svg width="30" height="25" viewBox="0 0 25 25" fill="none" xmlns="http://www.w3.org/2000/svg">
<path d="M25 12.5C25 19.4036 19.4036 25 12.5 25C5.59644 25 0 19.4036 0 12.5C0 5.59644 5.59644 0 12.5 0C19.4036 0 25 5.59644 25 12.5Z" fill="#9D6E6A"/>
<path d="M9.21053 6.90789C9.21053 7.99793 8.25324 8.88158 7.07237 8.88158C5.8915 8.88158 4.93421 7.99793 4.93421 6.90789C4.93421 5.81786 5.8915 4.93421 7.07237 4.93421C8.25324 4.93421 9.21053 5.81786 9.21053 6.90789Z" fill="#6E4643"/>
<path d="M20.0658 17.9276C20.0658 19.1085 19.1085 20.0658 17.9276 20.0658C16.7468 20.0658 15.7895 19.1085 15.7895 17.9276C15.7895 16.7468 16.7468 15.7895 17.9276 15.7895C19.1085 15.7895 20.0658 16.7468 20.0658 17.9276Z" fill="#6E4643"/>
<path d="M6.57895 8.84291L8.84292 6.57894L18.4489 16.1849L16.1849 18.4489L6.57895 8.84291Z" fill="#6E4643"/>
<path d="M18.0921 9.21053C17.0021 9.21053 16.1184 8.25324 16.1184 7.07237C16.1184 5.8915 17.0021 4.93421 18.0921 4.93421C19.1821 4.93421 20.0658 5.8915 20.0658 7.07237C20.0658 8.25324 19.1821 9.21053 18.0921 9.21053Z" fill="#6E4643"/>
<path d="M7.07237 20.0658C5.8915 20.0658 4.93421 19.1085 4.93421 17.9276C4.93421 16.7468 5.8915 15.7895 7.07237 15.7895C8.25324 15.7895 9.21053 16.7468 9.21053 17.9276C9.21053 19.1085 8.25324 20.0658 7.07237 20.0658Z" fill="#6E4643"/>
<path d="M16.1571 6.57895L18.4211 8.84292L8.81506 18.4489L6.55109 16.1849L16.1571 6.57895Z" fill="#6E4643"/>
</svg>
